<svg id="svg" version="1.1" xmlns="http://www.w3.org/2000/svg" xmlns:xlink="http://www.w3.org/1999/xlink" width="400" height="400" viewBox="0, 0, 400,400"><g id="svgg"><path id="path0" d="M275.177 50.779 C 274.614 50.950,273.750 51.305,273.258 51.569 C 272.154 52.160,267.371 53.025,259.400 54.074 C 254.795 54.680,162.681 54.988,151.800 54.434 C 134.970 53.576,107.211 53.676,105.640 54.600 C 103.670 55.759,103.052 57.749,104.036 59.771 C 105.178 62.119,105.597 62.267,112.581 62.768 C 133.009 64.237,135.389 66.471,136.908 85.600 C 137.471 92.694,137.638 286.576,137.091 298.600 C 135.969 323.270,133.384 335.453,128.783 337.749 C 127.285 338.496,122.617 339.440,115.600 340.414 C 110.450 341.129,109.600 341.815,109.600 345.258 C 109.600 350.017,114.389 350.559,140.400 348.744 C 147.391 348.256,177.626 348.503,193.000 349.174 C 221.523 350.418,265.590 351.110,271.500 350.406 C 279.992 349.394,282.839 346.817,284.985 338.200 C 285.907 334.499,288.273 319.176,289.186 311.000 C 289.406 309.020,289.749 306.028,289.946 304.351 C 290.681 298.114,289.257 294.800,285.842 294.800 C 282.675 294.800,281.727 296.035,280.620 301.600 C 277.754 316.002,274.158 321.827,265.424 326.218 C 256.905 330.502,238.807 332.242,213.430 331.218 C 187.676 330.179,180.713 326.447,177.945 312.200 C 176.810 306.358,176.677 202.286,177.804 201.854 C 178.533 201.574,216.639 202.320,226.800 202.813 C 249.738 203.925,255.914 206.346,258.402 215.200 C 258.680 216.190,259.058 217.540,259.241 218.200 C 259.425 218.860,259.749 221.679,259.961 224.464 C 260.430 230.601,261.187 232.000,264.039 232.000 C 267.538 232.000,268.766 229.362,269.228 220.850 C 270.234 202.307,271.945 186.521,273.614 180.400 C 274.658 176.571,273.894 173.212,271.809 172.458 C 269.941 171.782,268.823 172.369,265.089 175.986 C 258.132 182.725,250.744 183.546,196.700 183.586 L 177.200 183.600 177.200 128.387 C 177.200 79.973,177.273 73.147,177.793 72.947 C 178.643 72.621,228.979 73.566,234.000 74.002 C 240.330 74.553,247.647 75.761,252.806 77.107 C 254.101 77.444,255.944 78.186,258.359 79.340 C 260.488 80.358,262.294 82.805,263.945 86.909 C 264.470 88.213,265.600 96.467,265.600 98.994 C 265.600 104.271,270.144 106.496,273.327 102.777 C 275.317 100.453,275.437 99.621,277.211 76.000 C 277.696 69.544,278.326 65.527,279.691 60.200 C 281.531 53.014,279.790 49.379,275.177 50.779 " stroke="none" fill="#fbfbfb" fill-rule="evenodd"></path><path id="path1" d="M0.000 200.000 L 0.000 400.000 200.000 400.000 L 400.000 400.000 400.000 200.000 L 400.000 0.000 200.000 0.000 L 0.000 0.000 0.000 200.000 M279.874 50.900 C 280.658 51.767,281.724 55.076,281.392 55.613 C 281.303 55.756,281.053 56.847,280.836 58.037 C 280.619 59.227,280.241 61.010,279.996 62.000 C 278.882 66.498,278.199 71.467,277.578 79.600 C 277.132 85.438,276.556 92.511,276.168 96.900 C 276.018 98.605,275.738 100.000,275.547 100.000 C 275.356 100.000,275.200 100.272,275.200 100.605 C 275.200 102.156,273.191 104.393,271.159 105.104 C 267.673 106.325,264.800 103.295,264.800 98.398 C 264.800 95.667,264.160 90.525,263.531 88.200 C 262.119 82.982,260.184 80.760,255.300 78.746 C 252.507 77.595,252.699 77.649,248.200 76.752 C 247.100 76.532,245.390 76.264,244.400 76.156 C 243.410 76.047,242.240 75.795,241.800 75.596 C 239.753 74.668,225.420 74.035,200.300 73.762 L 177.600 73.515 177.600 128.157 L 177.600 182.800 203.529 182.800 C 243.201 182.800,258.692 181.632,261.600 178.421 C 270.010 169.134,275.427 169.317,274.540 178.856 C 274.399 180.379,274.129 181.720,273.941 181.836 C 273.754 181.952,273.600 182.811,273.600 183.744 C 273.600 184.677,273.440 185.611,273.243 185.820 C 273.047 186.029,272.766 187.370,272.619 188.800 C 272.471 190.230,272.188 192.930,271.989 194.800 C 271.791 196.670,271.535 199.100,271.420 200.200 C 271.151 202.786,270.528 211.204,269.969 219.800 C 269.326 229.680,268.172 232.356,264.489 232.503 C 260.729 232.653,259.307 230.379,259.044 223.800 C 258.843 218.796,258.478 216.096,257.958 215.774 C 257.761 215.652,257.600 215.220,257.600 214.814 C 257.600 211.877,251.843 206.400,248.756 206.400 C 248.366 206.400,247.948 206.240,247.827 206.044 C 247.706 205.849,246.931 205.574,246.104 205.433 C 245.277 205.293,243.610 204.997,242.400 204.775 C 237.489 203.872,220.289 203.121,191.493 202.550 L 177.586 202.274 177.741 254.837 C 177.904 309.990,177.916 310.350,179.836 316.800 C 180.683 319.646,184.366 324.800,185.553 324.800 C 185.762 324.800,185.993 324.935,186.067 325.100 C 186.259 325.532,189.572 327.200,190.238 327.200 C 190.547 327.200,190.800 327.380,190.800 327.600 C 190.800 327.820,191.329 328.000,191.976 328.000 C 192.623 328.000,193.249 328.156,193.367 328.347 C 193.485 328.538,194.441 328.822,195.491 328.978 C 196.541 329.134,198.570 329.436,200.000 329.648 C 212.307 331.477,244.377 330.985,255.600 328.796 C 256.810 328.560,258.387 328.264,259.104 328.139 C 259.821 328.014,260.506 327.751,260.627 327.556 C 260.748 327.360,261.178 327.200,261.583 327.200 C 263.122 327.200,269.457 323.368,271.813 321.013 C 275.686 317.140,278.544 310.370,279.756 302.200 C 280.601 296.503,282.547 294.000,286.130 294.000 C 287.718 294.000,290.000 295.625,290.000 296.756 C 290.000 297.132,290.197 297.637,290.438 297.878 C 291.112 298.552,290.608 306.133,289.194 316.600 C 288.956 318.360,288.665 320.880,288.547 322.200 C 288.429 323.520,288.168 324.771,287.966 324.980 C 287.765 325.189,287.600 326.099,287.600 327.003 C 287.600 328.811,285.916 337.840,285.009 340.894 C 283.770 345.067,280.303 349.600,278.352 349.600 C 277.964 349.600,277.552 349.754,277.436 349.941 C 276.576 351.333,235.947 351.610,206.000 350.428 C 166.175 348.857,157.775 348.740,141.400 349.532 C 112.226 350.942,109.923 350.714,109.044 346.322 C 108.546 343.830,110.065 340.400,111.667 340.400 C 111.982 340.400,112.411 340.234,112.620 340.030 C 112.829 339.827,114.350 339.573,116.000 339.466 C 117.650 339.360,119.900 339.093,121.000 338.874 C 122.100 338.655,123.720 338.357,124.600 338.212 C 127.674 337.705,127.995 337.580,129.407 336.340 C 132.891 333.281,134.536 325.300,135.991 304.400 C 137.648 280.582,137.645 101.176,135.987 83.200 C 134.973 72.199,132.040 66.000,127.852 66.000 C 127.519 66.000,127.149 65.841,127.029 65.646 C 126.546 64.865,120.464 64.040,113.023 63.746 C 105.292 63.440,102.800 62.029,102.800 57.958 C 102.800 52.936,110.019 51.892,135.800 53.184 C 158.326 54.312,254.928 54.035,263.200 52.818 C 264.630 52.608,266.970 52.267,268.400 52.060 C 269.830 51.854,271.900 51.316,273.000 50.864 C 275.807 49.712,278.815 49.728,279.874 50.900 " stroke="none" fill="#8cbc64" fill-rule="evenodd"></path><path id="path2" d="M275.722 50.316 C 275.459 50.483,276.026 50.615,276.982 50.610 C 277.938 50.604,278.638 50.465,278.536 50.300 C 278.299 49.912,276.341 49.923,275.722 50.316 M266.200 52.800 C 265.122 53.074,265.102 53.106,266.000 53.113 C 266.550 53.117,267.450 52.976,268.000 52.800 C 269.344 52.369,267.892 52.369,266.200 52.800 M108.255 53.541 C 107.625 53.684,114.465 53.861,123.455 53.936 C 132.445 54.011,139.710 53.991,139.600 53.891 C 139.272 53.593,109.497 53.261,108.255 53.541 M260.800 53.600 C 259.443 53.886,259.437 53.895,260.600 53.907 C 261.260 53.915,262.250 53.776,262.800 53.600 C 264.112 53.180,262.796 53.180,260.800 53.600 M280.520 55.200 C 280.520 56.410,280.595 56.905,280.687 56.300 C 280.778 55.695,280.778 54.705,280.687 54.100 C 280.595 53.495,280.520 53.990,280.520 55.200 M104.744 54.824 L 103.800 55.647 105.000 54.945 C 106.579 54.020,106.603 54.000,106.111 54.000 C 105.879 54.000,105.264 54.371,104.744 54.824 M151.800 54.453 C 157.281 54.800,253.418 54.822,255.355 54.477 C 256.210 54.325,232.360 54.200,202.355 54.200 C 172.350 54.200,149.600 54.314,151.800 54.453 M103.467 56.267 C 103.320 56.413,103.211 56.908,103.225 57.367 C 103.249 58.133,103.282 58.123,103.634 57.242 C 104.026 56.263,103.944 55.789,103.467 56.267 M279.873 58.953 C 279.723 59.345,279.611 59.966,279.625 60.333 C 279.642 60.775,279.781 60.674,280.037 60.034 C 280.249 59.503,280.361 58.882,280.285 58.654 C 280.209 58.427,280.024 58.561,279.873 58.953 M279.000 62.800 C 278.848 63.491,278.807 64.141,278.909 64.242 C 279.011 64.344,279.209 63.853,279.350 63.150 C 279.683 61.483,279.360 61.160,279.000 62.800 M108.200 62.796 C 110.257 63.139,114.664 63.319,114.367 63.048 C 114.275 62.964,112.400 62.798,110.200 62.679 C 107.370 62.526,106.785 62.560,108.200 62.796 M117.633 63.344 C 117.725 63.424,118.880 63.589,120.200 63.712 C 121.691 63.851,122.221 63.811,121.600 63.607 C 120.612 63.284,117.311 63.065,117.633 63.344 M123.633 64.144 C 123.725 64.223,124.340 64.408,125.000 64.556 C 125.876 64.752,126.038 64.715,125.600 64.418 C 125.060 64.053,123.232 63.798,123.633 64.144 M278.200 66.800 C 278.046 67.710,278.004 68.538,278.107 68.640 C 278.210 68.743,278.413 68.077,278.560 67.160 C 278.707 66.243,278.748 65.415,278.653 65.320 C 278.558 65.224,278.354 65.890,278.200 66.800 M129.395 66.094 C 130.427 66.751,132.824 69.125,133.741 70.400 C 134.450 71.384,134.450 71.381,133.779 70.200 C 132.782 68.447,131.169 66.809,129.800 66.159 C 129.140 65.845,128.958 65.816,129.395 66.094 M277.469 71.556 C 277.321 72.295,277.222 73.552,277.249 74.350 C 277.286 75.449,277.382 75.218,277.648 73.400 C 278.031 70.771,277.899 69.405,277.469 71.556 M177.461 73.100 C 177.359 73.265,180.093 73.354,183.537 73.297 C 195.392 73.101,196.578 72.964,187.124 72.882 C 181.912 72.837,177.563 72.935,177.461 73.100 M212.100 73.498 C 214.465 73.569,218.335 73.569,220.700 73.498 C 223.065 73.428,221.130 73.370,216.400 73.370 C 211.670 73.370,209.735 73.428,212.100 73.498 M226.291 73.889 C 227.001 73.977,228.261 73.979,229.091 73.892 C 229.921 73.805,229.340 73.733,227.800 73.731 C 226.260 73.729,225.581 73.800,226.291 73.889 M234.100 74.287 C 234.705 74.378,235.695 74.378,236.300 74.287 C 236.905 74.195,236.410 74.120,235.200 74.120 C 233.990 74.120,233.495 74.195,234.100 74.287 M240.433 74.945 C 240.525 75.025,241.401 75.192,242.379 75.318 C 243.530 75.465,243.954 75.416,243.579 75.179 C 243.045 74.840,240.058 74.619,240.433 74.945 M245.633 75.743 C 245.725 75.821,246.430 76.001,247.200 76.142 C 248.185 76.323,248.422 76.282,248.000 76.006 C 247.458 75.650,245.237 75.403,245.633 75.743 M249.633 76.544 C 249.725 76.623,250.340 76.808,251.000 76.956 C 251.876 77.152,252.038 77.115,251.600 76.818 C 251.060 76.453,249.232 76.198,249.633 76.544 M136.303 81.600 C 136.417 83.250,136.576 84.675,136.655 84.767 C 136.933 85.087,136.718 80.592,136.408 79.600 C 136.231 79.036,136.186 79.907,136.303 81.600 M257.233 78.916 C 257.325 78.980,258.075 79.529,258.900 80.137 C 259.725 80.744,260.398 81.097,260.395 80.920 C 260.390 80.587,257.815 78.800,257.339 78.800 C 257.189 78.800,257.142 78.852,257.233 78.916 M276.671 82.002 C 276.526 83.211,276.430 85.100,276.458 86.200 C 276.493 87.534,276.623 86.935,276.851 84.400 C 277.224 80.237,277.093 78.486,276.671 82.002 M263.873 88.000 C 264.321 90.428,264.807 91.580,264.547 89.600 C 264.416 88.610,264.153 87.530,263.962 87.200 C 263.746 86.829,263.712 87.133,263.873 88.000 M137.113 103.400 C 137.175 111.760,137.282 119.140,137.349 119.800 C 137.417 120.460,137.481 114.700,137.493 107.000 C 137.504 99.300,137.398 91.920,137.257 90.600 C 137.115 89.280,137.051 95.040,137.113 103.400 M275.868 92.159 C 275.720 93.233,275.623 94.762,275.652 95.556 C 275.680 96.350,275.860 95.650,276.051 94.000 C 276.440 90.648,276.286 89.107,275.868 92.159 M265.082 96.200 C 265.199 98.400,265.364 100.275,265.448 100.367 C 265.706 100.649,265.539 96.722,265.194 94.400 C 264.959 92.810,264.927 93.309,265.082 96.200 M275.029 99.029 C 274.881 99.615,274.838 100.172,274.932 100.266 C 275.027 100.360,275.224 99.958,275.371 99.371 C 275.519 98.785,275.562 98.228,275.468 98.134 C 275.373 98.040,275.176 98.442,275.029 99.029 M265.611 101.600 C 265.615 101.930,265.989 102.650,266.444 103.200 C 266.898 103.750,267.153 103.974,267.010 103.699 C 265.819 101.394,265.606 101.074,265.611 101.600 M273.226 102.907 C 272.087 104.311,272.042 104.429,272.963 103.600 C 273.920 102.738,275.056 101.186,274.714 101.207 C 274.651 101.211,273.982 101.976,273.226 102.907 M267.965 104.526 C 268.144 104.705,269.081 104.791,270.046 104.718 L 271.800 104.585 269.719 104.393 C 268.575 104.287,267.785 104.347,267.965 104.526 M273.470 173.600 C 273.652 173.930,273.907 175.370,274.037 176.800 L 274.274 179.400 274.337 176.976 C 274.381 175.291,274.208 174.317,273.770 173.776 C 273.424 173.349,273.289 173.270,273.470 173.600 M262.015 178.416 C 261.253 179.067,260.409 179.600,260.139 179.600 C 259.868 179.600,259.546 179.763,259.423 179.963 C 258.924 180.770,260.862 179.829,262.282 178.575 C 263.117 177.837,263.710 177.233,263.600 177.233 C 263.490 177.233,262.777 177.765,262.015 178.416 M256.800 180.818 C 256.362 181.115,256.524 181.152,257.400 180.956 C 258.871 180.627,259.190 180.398,258.167 180.406 C 257.745 180.409,257.130 180.595,256.800 180.818 M252.200 181.600 C 250.537 182.023,252.174 182.042,254.200 181.623 C 255.545 181.345,255.609 181.292,254.600 181.293 C 253.940 181.294,252.860 181.432,252.200 181.600 M247.305 182.287 C 247.914 182.379,248.814 182.377,249.305 182.282 C 249.797 182.187,249.300 182.111,248.200 182.114 C 247.100 182.117,246.697 182.195,247.305 182.287 M244.100 182.676 C 244.485 182.776,245.115 182.776,245.500 182.676 C 245.885 182.575,245.570 182.493,244.800 182.493 C 244.030 182.493,243.715 182.575,244.100 182.676 M226.100 183.099 C 228.685 183.168,232.915 183.168,235.500 183.099 C 238.085 183.029,235.970 182.972,230.800 182.972 C 225.630 182.972,223.515 183.029,226.100 183.099 M201.725 183.499 C 205.424 183.566,211.364 183.565,214.925 183.499 C 218.486 183.433,215.460 183.379,208.200 183.379 C 200.940 183.379,198.026 183.433,201.725 183.499 M272.493 186.400 C 272.493 187.170,272.575 187.485,272.676 187.100 C 272.776 186.715,272.776 186.085,272.676 185.700 C 272.575 185.315,272.493 185.630,272.493 186.400 M271.709 191.600 C 271.709 192.590,271.787 192.995,271.882 192.500 C 271.978 192.005,271.978 191.195,271.882 190.700 C 271.787 190.205,271.709 190.610,271.709 191.600 M271.293 194.800 C 271.293 195.570,271.375 195.885,271.476 195.500 C 271.576 195.115,271.576 194.485,271.476 194.100 C 271.375 193.715,271.293 194.030,271.293 194.800 M270.928 198.800 C 270.928 200.230,271.001 200.815,271.089 200.100 C 271.178 199.385,271.178 198.215,271.089 197.500 C 271.001 196.785,270.928 197.370,270.928 198.800 M177.719 201.918 C 177.454 202.086,178.534 202.164,180.119 202.091 C 184.211 201.902,184.711 201.700,181.200 201.653 C 179.550 201.630,177.983 201.750,177.719 201.918 M190.300 202.299 C 193.655 202.366,199.145 202.366,202.500 202.299 C 205.855 202.232,203.110 202.178,196.400 202.178 C 189.690 202.178,186.945 202.232,190.300 202.299 M270.493 203.200 C 270.493 203.970,270.575 204.285,270.676 203.900 C 270.776 203.515,270.776 202.885,270.676 202.500 C 270.575 202.115,270.493 202.430,270.493 203.200 M219.400 202.800 C 223.716 203.130,231.439 203.295,231.167 203.050 C 231.075 202.968,227.490 202.809,223.200 202.697 C 217.958 202.561,216.712 202.594,219.400 202.800 M235.600 203.620 C 236.590 203.797,238.030 203.930,238.800 203.917 C 239.945 203.897,239.835 203.836,238.200 203.582 C 235.453 203.154,233.169 203.188,235.600 203.620 M248.200 205.812 C 250.273 206.558,250.994 206.540,249.254 205.784 C 248.514 205.463,247.614 205.208,247.254 205.218 C 246.894 205.227,247.320 205.495,248.200 205.812 M269.882 210.361 C 269.720 212.649,269.664 214.597,269.756 214.689 C 270.003 214.936,270.505 208.350,270.328 207.191 C 270.245 206.646,270.044 208.072,269.882 210.361 M252.886 207.800 C 253.695 208.350,254.499 208.800,254.672 208.800 C 254.844 208.800,254.323 208.350,253.514 207.800 C 252.705 207.250,251.901 206.800,251.728 206.800 C 251.556 206.800,252.077 207.250,252.886 207.800 M259.058 218.800 C 259.375 220.525,259.602 220.851,259.594 219.567 C 259.591 219.035,259.411 218.330,259.194 218.000 C 258.918 217.578,258.877 217.815,259.058 218.800 M269.346 221.400 C 269.347 223.600,269.414 224.449,269.495 223.287 C 269.576 222.124,269.576 220.324,269.493 219.287 C 269.411 218.249,269.345 219.200,269.346 221.400 M259.640 225.433 C 259.662 226.735,259.818 228.250,259.988 228.800 C 260.157 229.350,260.205 228.360,260.093 226.600 C 259.852 222.790,259.584 222.100,259.640 225.433 M268.065 229.017 C 267.395 230.488,267.523 230.802,268.247 229.465 C 268.586 228.840,268.788 228.254,268.696 228.163 C 268.605 228.071,268.321 228.456,268.065 229.017 M137.294 275.237 C 137.242 282.188,137.120 290.108,137.023 292.837 L 136.846 297.800 137.222 293.400 C 137.429 290.980,137.551 283.060,137.494 275.800 L 137.389 262.600 137.294 275.237 M176.980 281.600 C 176.980 289.410,177.034 292.605,177.099 288.700 C 177.165 284.795,177.165 278.405,177.099 274.500 C 177.034 270.595,176.980 273.790,176.980 281.600 M284.905 294.687 C 285.514 294.779,286.414 294.777,286.905 294.682 C 287.397 294.587,286.900 294.511,285.800 294.514 C 284.700 294.517,284.297 294.595,284.905 294.687 M289.687 297.800 C 289.691 298.240,289.832 299.140,290.000 299.800 C 290.274 300.878,290.306 300.898,290.313 300.000 C 290.317 299.450,290.176 298.550,290.000 298.000 C 289.749 297.216,289.681 297.173,289.687 297.800 M280.649 299.415 C 280.512 299.773,280.418 300.456,280.441 300.933 C 280.467 301.481,280.603 301.286,280.810 300.403 C 281.160 298.916,281.065 298.333,280.649 299.415 M290.093 303.200 C 290.093 303.970,290.175 304.285,290.276 303.900 C 290.376 303.515,290.376 302.885,290.276 302.500 C 290.175 302.115,290.093 302.430,290.093 303.200 M136.476 304.641 C 136.434 305.764,136.317 307.834,136.215 309.241 L 136.030 311.800 136.423 309.400 C 136.639 308.080,136.756 306.010,136.683 304.800 L 136.551 302.600 136.476 304.641 M279.693 304.800 C 279.693 305.570,279.775 305.885,279.876 305.500 C 279.976 305.115,279.976 304.485,279.876 304.100 C 279.775 303.715,279.693 304.030,279.693 304.800 M289.720 306.800 C 289.720 308.010,289.795 308.505,289.887 307.900 C 289.978 307.295,289.978 306.305,289.887 305.700 C 289.795 305.095,289.720 305.590,289.720 306.800 M177.240 307.233 C 177.262 308.205,177.425 309.450,177.602 310.000 C 177.795 310.600,177.837 309.960,177.706 308.400 C 177.451 305.362,177.182 304.689,177.240 307.233 M178.046 312.800 C 178.027 313.350,178.187 314.070,178.400 314.400 C 178.894 315.164,178.894 314.342,178.400 312.800 L 178.080 311.800 178.046 312.800 M288.914 314.200 C 288.917 315.300,288.995 315.703,289.087 315.095 C 289.179 314.486,289.177 313.586,289.082 313.095 C 288.987 312.603,288.911 313.100,288.914 314.200 M135.446 316.646 C 135.300 317.893,135.259 318.993,135.357 319.090 C 135.454 319.188,135.661 318.254,135.815 317.015 C 135.970 315.777,136.010 314.677,135.905 314.571 C 135.799 314.466,135.593 315.399,135.446 316.646 M288.109 320.000 C 288.109 320.990,288.187 321.395,288.282 320.900 C 288.378 320.405,288.378 319.595,288.282 319.100 C 288.187 318.605,288.109 319.010,288.109 320.000 M134.640 322.440 C 134.493 323.357,134.452 324.185,134.547 324.280 C 134.642 324.376,134.846 323.710,135.000 322.800 C 135.154 321.890,135.196 321.062,135.093 320.960 C 134.990 320.857,134.787 321.523,134.640 322.440 M268.629 324.011 C 267.765 324.665,267.231 325.200,267.444 325.200 C 267.831 325.200,270.776 322.837,270.400 322.827 C 270.290 322.825,269.493 323.357,268.629 324.011 M183.164 323.735 C 183.749 324.463,186.000 326.177,186.000 325.894 C 186.000 325.806,185.235 325.126,184.300 324.383 C 183.365 323.640,182.854 323.348,183.164 323.735 M287.055 326.655 C 286.913 327.686,286.874 328.608,286.969 328.702 C 287.063 328.796,287.265 328.039,287.418 327.018 C 287.571 325.998,287.610 325.076,287.504 324.971 C 287.398 324.865,287.196 325.623,287.055 326.655 M133.850 326.850 C 133.517 328.517,133.840 328.840,134.200 327.200 C 134.352 326.509,134.393 325.859,134.291 325.758 C 134.189 325.656,133.991 326.147,133.850 326.850 M188.000 327.014 C 188.000 327.293,190.906 328.431,191.291 328.303 C 191.482 328.239,190.820 327.884,189.819 327.513 C 188.819 327.142,188.000 326.917,188.000 327.014 M260.400 328.000 C 259.576 328.264,259.541 328.326,260.200 328.354 C 260.640 328.373,261.270 328.213,261.600 328.000 C 262.301 327.547,261.814 327.547,260.400 328.000 M257.400 328.800 C 256.293 329.082,256.277 329.109,257.200 329.147 C 257.750 329.169,258.470 329.013,258.800 328.800 C 259.481 328.360,259.129 328.360,257.400 328.800 M133.029 330.229 C 132.881 330.815,132.838 331.372,132.932 331.466 C 133.027 331.560,133.224 331.158,133.371 330.571 C 133.519 329.985,133.562 329.428,133.468 329.334 C 133.373 329.240,133.176 329.642,133.029 330.229 M196.900 329.876 C 197.285 329.976,197.915 329.976,198.300 329.876 C 198.685 329.775,198.370 329.693,197.600 329.693 C 196.830 329.693,196.515 329.775,196.900 329.876 M251.905 329.883 C 252.402 329.979,253.122 329.975,253.505 329.875 C 253.887 329.775,253.480 329.696,252.600 329.701 C 251.720 329.705,251.407 329.787,251.905 329.883 M286.454 330.400 C 286.419 330.950,286.296 331.850,286.183 332.400 L 285.977 333.400 286.407 332.415 C 286.643 331.874,286.765 330.974,286.678 330.415 L 286.520 329.400 286.454 330.400 M202.500 330.687 C 203.105 330.778,204.095 330.778,204.700 330.687 C 205.305 330.595,204.810 330.520,203.600 330.520 C 202.390 330.520,201.895 330.595,202.500 330.687 M245.107 330.690 C 245.826 330.779,246.906 330.777,247.507 330.686 C 248.108 330.595,247.520 330.522,246.200 330.524 C 244.880 330.526,244.388 330.601,245.107 330.690 M208.105 331.087 C 208.714 331.179,209.614 331.177,210.105 331.082 C 210.597 330.987,210.100 330.911,209.000 330.914 C 207.900 330.917,207.497 330.995,208.105 331.087 M239.107 331.090 C 239.826 331.179,240.906 331.177,241.507 331.086 C 242.108 330.995,241.520 330.922,240.200 330.924 C 238.880 330.926,238.388 331.001,239.107 331.090 M221.300 331.497 C 223.005 331.572,225.795 331.572,227.500 331.497 C 229.205 331.422,227.810 331.361,224.400 331.361 C 220.990 331.361,219.595 331.422,221.300 331.497 M130.802 335.398 C 130.326 336.166,129.637 336.971,129.269 337.185 C 128.901 337.400,128.816 337.581,129.080 337.588 C 129.502 337.599,130.962 335.919,131.765 334.500 C 132.415 333.350,131.595 334.114,130.802 335.398 M123.800 338.800 C 122.722 339.074,122.702 339.106,123.600 339.113 C 124.150 339.117,125.050 338.976,125.600 338.800 C 126.944 338.369,125.492 338.369,123.800 338.800 M119.000 339.600 C 117.922 339.874,117.902 339.906,118.800 339.913 C 119.350 339.917,120.250 339.776,120.800 339.600 C 122.144 339.169,120.692 339.169,119.000 339.600 M113.200 340.400 L 111.800 340.695 113.200 340.700 C 113.970 340.703,115.140 340.568,115.800 340.400 L 117.000 340.095 115.800 340.100 C 115.140 340.103,113.970 340.238,113.200 340.400 M109.253 345.011 C 109.195 346.766,109.941 348.144,111.321 348.832 C 111.925 349.134,111.832 348.965,111.025 348.293 C 110.133 347.551,109.784 346.844,109.578 345.358 L 109.307 343.400 109.253 345.011 M280.800 346.897 C 280.027 347.797,279.758 348.297,280.200 348.014 C 281.144 347.409,283.009 345.185,282.530 345.234 C 282.349 345.252,281.570 346.001,280.800 346.897 M140.400 348.791 C 139.190 348.934,141.440 348.970,145.400 348.871 C 149.360 348.772,152.675 348.625,152.767 348.545 C 153.041 348.306,142.773 348.510,140.400 348.791 M166.033 348.547 C 166.125 348.627,170.520 348.772,175.800 348.867 C 181.080 348.963,184.140 348.919,182.600 348.770 C 179.642 348.484,165.749 348.296,166.033 348.547 M113.400 349.590 C 114.164 349.928,116.714 350.157,116.367 349.856 C 116.275 349.776,115.390 349.604,114.400 349.473 C 113.198 349.314,112.866 349.353,113.400 349.590 M123.200 349.600 L 119.400 349.847 122.600 349.871 C 124.360 349.884,127.870 349.770,130.400 349.617 L 135.000 349.338 131.000 349.346 C 128.800 349.350,125.290 349.464,123.200 349.600 M189.633 349.346 C 189.725 349.426,193.580 349.582,198.200 349.692 C 203.448 349.817,205.174 349.779,202.800 349.591 C 198.793 349.273,189.349 349.097,189.633 349.346 M224.600 350.404 C 230.212 350.733,240.238 350.894,239.967 350.651 C 239.875 350.569,235.210 350.411,229.600 350.301 C 222.735 350.165,221.100 350.199,224.600 350.404 M271.400 350.400 L 269.800 350.686 271.200 350.696 C 271.970 350.701,273.140 350.568,273.800 350.400 C 275.428 349.986,273.713 349.986,271.400 350.400 " stroke="none" fill="#c4dcb4" fill-rule="evenodd"></path><path id="path3" d="M272.600 51.042 C 271.280 51.585,270.672 51.934,271.249 51.819 C 272.425 51.585,276.024 50.057,275.400 50.056 C 275.180 50.056,273.920 50.500,272.600 51.042 M279.449 50.800 C 279.916 51.350,280.397 52.070,280.518 52.400 C 280.705 52.914,280.741 52.909,280.768 52.370 C 280.786 52.023,280.305 51.303,279.700 50.770 L 278.600 49.800 279.449 50.800 M266.000 52.413 C 265.354 52.629,265.780 52.666,267.200 52.519 C 268.410 52.394,269.475 52.226,269.567 52.146 C 269.887 51.865,266.991 52.083,266.000 52.413 M107.737 53.106 C 107.482 53.268,111.262 53.353,116.137 53.296 C 130.708 53.125,132.122 52.968,119.800 52.888 C 113.420 52.846,107.992 52.944,107.737 53.106 M260.200 53.211 C 259.472 53.402,260.102 53.441,261.800 53.309 C 263.340 53.189,264.675 53.025,264.767 52.945 C 265.073 52.678,261.416 52.891,260.200 53.211 M133.700 53.496 C 134.965 53.575,137.035 53.575,138.300 53.496 C 139.565 53.416,138.530 53.351,136.000 53.351 C 133.470 53.351,132.435 53.416,133.700 53.496 M280.806 53.833 C 280.809 54.255,280.995 54.870,281.218 55.200 C 281.515 55.638,281.552 55.476,281.356 54.600 C 281.027 53.129,280.798 52.810,280.806 53.833 M104.147 55.028 C 102.387 56.895,102.710 62.000,104.588 62.000 C 104.698 62.000,104.432 61.415,103.996 60.700 C 102.478 58.211,103.287 55.249,105.781 54.162 C 106.620 53.797,106.765 53.626,106.247 53.616 C 105.833 53.607,104.888 54.243,104.147 55.028 M152.329 53.900 C 158.779 53.962,169.219 53.962,175.529 53.900 C 181.838 53.838,176.560 53.787,163.800 53.787 C 151.040 53.787,145.878 53.838,152.329 53.900 M217.600 54.000 L 187.000 54.208 216.800 54.251 C 233.190 54.275,249.390 54.170,252.800 54.019 L 259.000 53.743 253.600 53.768 C 250.630 53.781,234.430 53.886,217.600 54.000 M280.454 58.667 C 280.425 59.144,280.296 59.864,280.170 60.267 C 279.952 60.961,279.964 60.962,280.396 60.288 C 280.647 59.897,280.775 59.177,280.681 58.688 C 280.509 57.801,280.509 57.801,280.454 58.667 M279.654 61.867 C 279.625 62.344,279.496 63.064,279.370 63.467 C 279.152 64.161,279.164 64.162,279.596 63.488 C 279.847 63.097,279.975 62.377,279.881 61.888 C 279.709 61.001,279.709 61.001,279.654 61.867 M106.662 63.300 C 106.764 63.465,108.772 63.573,111.124 63.540 C 115.823 63.474,115.315 63.292,109.938 63.114 C 108.034 63.051,106.560 63.135,106.662 63.300 M118.600 63.989 C 119.816 64.309,123.473 64.522,123.167 64.255 C 123.075 64.175,121.740 64.011,120.200 63.891 C 118.502 63.759,117.872 63.798,118.600 63.989 M124.400 64.782 C 124.730 65.005,125.345 65.191,125.767 65.194 C 126.790 65.202,126.471 64.973,125.000 64.644 C 124.124 64.448,123.962 64.485,124.400 64.782 M278.849 65.800 C 278.816 66.240,278.696 67.050,278.583 67.600 L 278.377 68.600 278.806 67.619 C 279.042 67.079,279.161 66.269,279.072 65.819 C 278.913 65.021,278.907 65.021,278.849 65.800 M128.800 66.124 C 128.800 66.217,129.565 66.798,130.500 67.415 C 131.435 68.032,131.989 68.280,131.731 67.968 C 131.234 67.367,128.800 65.836,128.800 66.124 M132.415 69.000 C 132.417 69.220,132.786 69.850,133.236 70.400 C 133.779 71.064,133.915 71.131,133.640 70.600 C 132.966 69.295,132.412 68.572,132.415 69.000 M278.065 70.800 C 278.025 71.570,277.904 72.920,277.797 73.800 L 277.603 75.400 278.023 74.062 C 278.254 73.327,278.374 71.977,278.291 71.062 C 278.148 69.491,278.136 69.477,278.065 70.800 M134.208 72.400 C 134.957 75.365,135.118 75.798,135.159 74.946 C 135.182 74.476,134.920 73.486,134.578 72.746 C 134.169 71.861,134.043 71.742,134.208 72.400 M182.323 73.499 C 185.031 73.568,189.351 73.568,191.923 73.499 C 194.495 73.429,192.280 73.372,187.000 73.373 C 181.720 73.373,179.615 73.430,182.323 73.499 M221.000 74.019 C 223.200 74.177,226.170 74.299,227.600 74.291 C 230.133 74.277,230.112 74.268,226.800 73.978 C 224.930 73.814,221.960 73.691,220.200 73.706 L 217.000 73.732 221.000 74.019 M177.394 128.400 C 177.394 158.210,177.442 170.405,177.500 155.500 C 177.558 140.595,177.558 116.205,177.500 101.300 C 177.442 86.395,177.394 98.590,177.394 128.400 M235.800 74.780 C 236.561 75.126,239.517 75.364,239.167 75.051 C 239.075 74.969,238.100 74.793,237.000 74.659 C 235.654 74.495,235.261 74.535,235.800 74.780 M241.790 75.584 C 241.932 75.813,242.517 76.000,243.090 76.000 C 244.344 76.000,244.199 75.808,242.666 75.440 C 241.923 75.262,241.621 75.311,241.790 75.584 M246.400 76.400 C 246.730 76.613,247.360 76.778,247.800 76.766 L 248.600 76.744 247.800 76.400 C 246.604 75.886,245.605 75.886,246.400 76.400 M135.661 78.973 C 135.627 79.838,135.788 82.088,136.018 83.973 C 136.248 85.858,136.579 95.050,136.754 104.400 C 137.007 117.895,137.082 119.421,137.119 111.800 C 137.182 98.559,135.965 71.145,135.661 78.973 M277.277 79.844 C 277.235 80.968,277.113 82.768,277.006 83.844 L 276.812 85.800 277.222 84.200 C 277.447 83.320,277.569 81.520,277.493 80.200 L 277.354 77.800 277.277 79.844 M257.991 79.883 C 258.535 80.277,259.615 81.132,260.391 81.782 L 261.800 82.964 260.718 81.779 C 260.123 81.127,259.043 80.272,258.318 79.879 C 257.049 79.192,257.037 79.192,257.991 79.883 M263.212 87.200 C 263.212 87.530,263.387 88.070,263.600 88.400 C 263.945 88.933,263.988 88.933,263.988 88.400 C 263.988 88.070,263.813 87.530,263.600 87.200 C 263.255 86.667,263.212 86.667,263.212 87.200 M264.277 92.200 C 264.400 93.520,264.568 94.675,264.650 94.767 C 264.918 95.064,264.715 92.234,264.380 91.000 C 264.165 90.211,264.130 90.622,264.277 92.200 M276.246 92.646 C 276.100 93.893,276.059 94.993,276.157 95.090 C 276.254 95.188,276.461 94.254,276.615 93.015 C 276.770 91.777,276.810 90.677,276.705 90.571 C 276.599 90.466,276.393 91.399,276.246 92.646 M264.838 98.800 C 264.824 100.010,264.960 101.233,265.140 101.517 C 265.324 101.806,265.396 101.011,265.304 99.717 C 265.079 96.558,264.868 96.142,264.838 98.800 M275.502 99.000 C 275.397 99.550,275.466 100.000,275.655 100.000 C 275.845 100.000,276.000 99.550,276.000 99.000 C 276.000 98.450,275.931 98.000,275.847 98.000 C 275.762 98.000,275.607 98.450,275.502 99.000 M265.600 102.664 C 265.600 102.882,266.095 103.497,266.700 104.030 L 267.800 105.000 266.800 103.800 C 266.250 103.140,265.755 102.525,265.700 102.433 C 265.645 102.342,265.600 102.445,265.600 102.664 M268.941 105.255 C 269.458 105.556,269.941 105.560,270.541 105.270 C 271.290 104.907,271.196 104.852,269.800 104.839 C 268.469 104.827,268.325 104.897,268.941 105.255 M137.396 191.800 C 137.396 230.520,137.443 246.301,137.500 226.868 C 137.557 207.436,137.557 175.756,137.500 156.468 C 137.443 137.181,137.396 153.080,137.396 191.800 M265.244 174.900 C 263.284 176.715,261.662 178.361,261.640 178.557 C 261.618 178.753,263.214 177.358,265.186 175.457 C 268.801 171.972,271.618 170.811,272.600 172.400 C 272.736 172.620,273.051 172.800,273.300 172.800 C 273.549 172.800,273.404 172.536,272.976 172.213 C 270.970 170.695,269.074 171.354,265.244 174.900 M274.501 176.600 C 274.505 177.480,274.587 177.793,274.683 177.295 C 274.779 176.798,274.775 176.078,274.675 175.695 C 274.575 175.313,274.496 175.720,274.501 176.600 M274.046 180.267 C 274.021 180.524,273.884 181.064,273.741 181.467 C 273.540 182.036,273.594 182.097,273.979 181.742 C 274.252 181.491,274.389 180.951,274.284 180.542 C 274.179 180.134,274.072 180.010,274.046 180.267 M248.800 181.600 L 247.000 181.880 248.600 181.893 C 249.480 181.900,250.740 181.768,251.400 181.600 C 253.000 181.193,251.419 181.193,248.800 181.600 M236.200 182.400 L 232.200 182.645 235.600 182.683 C 237.470 182.704,240.530 182.586,242.400 182.422 L 245.800 182.124 243.000 182.139 C 241.460 182.148,238.400 182.265,236.200 182.400 M188.300 183.100 C 194.295 183.162,204.105 183.162,210.100 183.100 C 216.095 183.038,211.190 182.987,199.200 182.987 C 187.210 182.987,182.305 183.038,188.300 183.100 M273.254 184.067 C 273.225 184.434,273.084 185.064,272.941 185.467 C 272.741 186.033,272.795 186.096,273.175 185.746 C 273.446 185.497,273.587 184.867,273.488 184.346 C 273.390 183.826,273.284 183.700,273.254 184.067 M272.222 189.822 C 272.072 190.625,272.038 191.372,272.148 191.482 C 272.258 191.592,272.472 191.025,272.622 190.222 C 272.773 189.419,272.806 188.673,272.696 188.563 C 272.586 188.453,272.373 189.019,272.222 189.822 M271.449 196.326 C 271.267 197.495,271.218 198.551,271.339 198.673 C 271.698 199.031,272.071 197.026,271.920 195.555 C 271.796 194.350,271.744 194.435,271.449 196.326 M179.491 202.289 C 180.201 202.377,181.461 202.379,182.291 202.292 C 183.121 202.205,182.540 202.133,181.000 202.131 C 179.460 202.129,178.781 202.200,179.491 202.289 M204.200 202.802 C 210.890 203.128,221.824 203.283,221.567 203.049 C 221.475 202.965,216.180 202.810,209.800 202.704 C 202.256 202.578,200.298 202.613,204.200 202.802 M270.611 205.811 C 270.453 207.706,270.409 209.342,270.513 209.446 C 270.617 209.550,270.832 208.085,270.989 206.189 C 271.147 204.294,271.191 202.658,271.087 202.554 C 270.983 202.450,270.768 203.915,270.611 205.811 M177.394 252.600 C 177.394 280.100,177.442 291.291,177.500 277.469 C 177.558 263.647,177.558 241.147,177.500 227.469 C 177.442 213.791,177.394 225.100,177.394 252.600 M229.000 203.613 C 230.540 203.771,232.880 203.895,234.200 203.887 L 236.600 203.874 233.800 203.587 C 232.260 203.429,229.920 203.305,228.600 203.313 L 226.200 203.326 229.000 203.613 M240.200 204.400 C 240.640 204.589,241.360 204.744,241.800 204.744 L 242.600 204.744 241.800 204.400 C 241.360 204.211,240.640 204.056,240.200 204.056 L 239.400 204.056 240.200 204.400 M255.215 209.800 C 255.217 210.020,255.586 210.650,256.036 211.200 C 256.579 211.864,256.715 211.931,256.440 211.400 C 255.766 210.095,255.212 209.372,255.215 209.800 M269.815 216.815 C 269.656 219.480,269.612 221.746,269.718 221.851 C 269.823 221.956,270.040 219.863,270.200 217.200 C 270.360 214.537,270.404 212.271,270.298 212.164 C 270.191 212.058,269.974 214.151,269.815 216.815 M259.246 225.876 C 259.221 227.458,259.346 228.843,259.524 228.953 C 259.702 229.063,259.782 228.039,259.701 226.677 C 259.481 222.969,259.298 222.648,259.246 225.876 M269.029 227.029 C 268.881 227.615,268.838 228.172,268.932 228.266 C 269.027 228.360,269.224 227.958,269.371 227.371 C 269.519 226.785,269.562 226.228,269.468 226.134 C 269.373 226.040,269.176 226.442,269.029 227.029 M267.483 230.600 C 266.860 231.380,265.975 232.021,265.483 232.046 C 264.753 232.085,264.728 232.126,265.336 232.283 C 266.086 232.476,267.747 231.205,268.451 229.900 C 269.027 228.831,268.714 229.058,267.483 230.600 M261.424 231.787 C 261.851 232.110,262.470 232.379,262.800 232.385 C 263.130 232.390,262.884 232.126,262.254 231.798 C 260.795 231.037,260.425 231.032,261.424 231.787 M136.631 281.723 C 136.456 292.461,136.401 301.335,136.509 301.442 C 136.757 301.690,137.357 264.073,137.122 262.997 C 137.027 262.559,136.806 270.986,136.631 281.723 M285.100 294.282 C 285.595 294.378,286.405 294.378,286.900 294.282 C 287.395 294.187,286.990 294.109,286.000 294.109 C 285.010 294.109,284.605 294.187,285.100 294.282 M288.834 295.447 C 289.365 296.133,289.880 296.623,289.979 296.535 C 290.077 296.447,289.643 295.886,289.013 295.288 L 287.869 294.200 288.834 295.447 M290.280 299.091 C 290.590 301.100,290.800 301.261,290.800 299.490 C 290.800 298.697,290.631 297.943,290.424 297.815 C 290.199 297.676,290.141 298.191,290.280 299.091 M279.849 301.015 C 279.712 301.373,279.616 302.056,279.636 302.533 C 279.662 303.147,279.785 303.008,280.059 302.056 C 280.457 300.672,280.294 299.858,279.849 301.015 M135.870 305.001 C 135.725 306.541,135.631 309.060,135.661 310.600 C 135.701 312.637,135.808 311.982,136.052 308.200 C 136.417 302.562,136.298 300.471,135.870 305.001 M290.465 303.200 C 290.425 303.750,290.299 304.920,290.185 305.800 C 290.006 307.194,290.034 307.273,290.408 306.414 C 290.645 305.872,290.771 304.702,290.689 303.814 C 290.607 302.926,290.506 302.650,290.465 303.200 M279.029 305.829 C 278.881 306.415,278.838 306.972,278.932 307.066 C 279.027 307.160,279.224 306.758,279.371 306.171 C 279.519 305.585,279.562 305.028,279.468 304.934 C 279.373 304.840,279.176 305.242,279.029 305.829 M177.670 306.800 C 177.657 307.350,177.795 308.520,177.977 309.400 L 178.308 311.000 178.307 309.600 C 178.305 307.835,177.709 305.212,177.670 306.800 M289.446 311.947 C 289.289 313.127,289.246 314.179,289.350 314.283 C 289.617 314.550,290.122 310.964,289.907 310.325 C 289.811 310.036,289.603 310.766,289.446 311.947 M178.644 313.400 C 178.973 314.871,179.202 315.190,179.194 314.167 C 179.191 313.745,179.005 313.130,178.782 312.800 C 178.485 312.362,178.448 312.524,178.644 313.400 M135.293 314.800 C 135.293 315.570,135.375 315.885,135.476 315.500 C 135.576 315.115,135.576 314.485,135.476 314.100 C 135.375 313.715,135.293 314.030,135.293 314.800 M288.653 318.141 C 288.486 318.988,288.441 319.775,288.555 319.888 C 288.858 320.191,289.297 318.185,289.114 317.332 C 289.020 316.890,288.837 317.211,288.653 318.141 M134.901 318.600 C 134.905 319.480,134.987 319.793,135.083 319.295 C 135.179 318.798,135.175 318.078,135.075 317.695 C 134.975 317.313,134.896 317.720,134.901 318.600 M180.000 318.300 C 180.000 318.491,180.261 318.996,180.580 319.424 C 181.140 320.173,181.152 320.168,180.932 319.294 C 180.704 318.391,180.000 317.640,180.000 318.300 M134.064 323.467 C 134.029 324.164,133.896 325.064,133.770 325.467 C 133.553 326.159,133.565 326.160,133.994 325.491 C 134.245 325.102,134.377 324.202,134.289 323.491 L 134.128 322.200 134.064 323.467 M288.060 323.067 C 288.027 323.544,287.884 324.264,287.741 324.667 C 287.542 325.231,287.595 325.296,287.972 324.949 C 288.242 324.701,288.385 323.981,288.291 323.349 C 288.170 322.539,288.102 322.456,288.060 323.067 M287.076 328.810 C 286.930 329.355,286.827 330.250,286.846 330.800 C 286.871 331.518,286.984 331.357,287.249 330.227 C 287.655 328.495,287.500 327.225,287.076 328.810 M195.800 329.200 C 196.240 329.389,196.870 329.544,197.200 329.544 C 197.578 329.544,197.504 329.417,197.000 329.200 C 196.560 329.011,195.930 328.856,195.600 328.856 C 195.222 328.856,195.296 328.983,195.800 329.200 M253.400 329.200 C 252.381 329.638,253.432 329.638,254.800 329.200 C 255.604 328.943,255.643 328.877,255.000 328.868 C 254.560 328.862,253.840 329.011,253.400 329.200 M200.800 330.000 C 201.350 330.176,202.250 330.320,202.800 330.320 L 203.800 330.320 202.800 330.000 C 202.250 329.824,201.350 329.680,200.800 329.680 L 199.800 329.680 200.800 330.000 M246.800 330.000 C 246.064 330.475,247.532 330.475,249.400 330.000 C 250.556 329.706,250.541 329.693,249.000 329.653 C 248.120 329.631,247.130 329.787,246.800 330.000 M209.800 330.815 C 213.227 331.241,219.599 331.229,218.600 330.800 C 218.160 330.611,215.460 330.470,212.600 330.487 C 208.341 330.512,207.834 330.572,209.800 330.815 M230.200 330.800 C 229.210 331.225,235.454 331.235,239.200 330.814 C 241.364 330.571,240.895 330.516,236.400 330.489 C 233.430 330.471,230.640 330.611,230.200 330.800 M286.222 333.822 C 286.072 334.625,286.028 335.362,286.126 335.460 C 286.224 335.557,286.427 334.981,286.578 334.178 C 286.728 333.375,286.772 332.638,286.674 332.540 C 286.576 332.443,286.373 333.019,286.222 333.822 M130.162 335.657 C 129.743 336.129,128.860 336.848,128.200 337.256 C 127.540 337.663,127.232 337.998,127.515 337.999 C 128.015 338.000,131.640 334.830,131.162 334.810 C 131.031 334.805,130.581 335.186,130.162 335.657 M285.400 338.000 C 285.248 338.691,285.207 339.341,285.309 339.442 C 285.411 339.544,285.609 339.053,285.750 338.350 C 285.891 337.647,285.931 336.998,285.841 336.908 C 285.750 336.817,285.552 337.309,285.400 338.000 M123.400 338.403 C 122.885 338.626,123.313 338.667,124.600 338.518 C 125.700 338.391,126.675 338.223,126.767 338.144 C 127.114 337.845,124.164 338.072,123.400 338.403 M119.221 339.179 C 118.846 339.416,119.270 339.465,120.421 339.318 C 121.399 339.192,122.275 339.025,122.367 338.945 C 122.742 338.619,119.755 338.840,119.221 339.179 M112.662 339.900 C 112.560 340.065,113.314 340.146,114.338 340.080 C 117.259 339.893,117.614 339.697,115.124 339.646 C 113.872 339.621,112.764 339.735,112.662 339.900 M284.557 341.100 C 283.824 344.215,281.318 347.765,279.000 348.971 C 278.340 349.314,278.083 349.596,278.428 349.598 C 279.551 349.602,282.227 346.916,283.477 344.530 C 284.654 342.284,285.430 340.000,285.015 340.000 C 284.905 340.000,284.699 340.495,284.557 341.100 M109.646 347.900 C 110.208 348.826,112.303 350.024,113.260 349.968 C 113.557 349.951,113.260 349.749,112.600 349.519 C 111.940 349.288,110.882 348.628,110.250 348.050 C 109.217 347.107,109.156 347.092,109.646 347.900 M156.700 348.697 C 158.295 348.773,160.905 348.773,162.500 348.697 C 164.095 348.621,162.790 348.559,159.600 348.559 C 156.410 348.559,155.105 348.621,156.700 348.697 M138.863 349.232 C 134.828 349.401,131.423 349.643,131.297 349.770 C 131.061 350.005,139.293 349.740,148.600 349.212 C 153.410 348.939,153.515 348.918,150.000 348.920 C 147.910 348.922,142.899 349.062,138.863 349.232 M171.000 349.205 C 177.049 349.526,189.038 349.693,188.767 349.452 C 188.675 349.371,183.380 349.216,177.000 349.106 C 169.609 348.980,167.432 349.016,171.000 349.205 M190.500 349.891 C 191.325 349.978,192.675 349.978,193.500 349.891 C 194.325 349.805,193.650 349.734,192.000 349.734 C 190.350 349.734,189.675 349.805,190.500 349.891 M275.824 350.050 C 274.957 350.253,274.147 350.521,274.024 350.645 C 273.655 351.017,276.968 350.333,277.380 349.951 C 277.589 349.758,277.679 349.618,277.580 349.640 C 277.481 349.662,276.691 349.847,275.824 350.050 M117.100 350.298 C 118.915 350.372,121.885 350.372,123.700 350.298 C 125.515 350.223,124.030 350.163,120.400 350.163 C 116.770 350.163,115.285 350.223,117.100 350.298 M200.033 350.146 C 200.125 350.226,204.880 350.380,210.600 350.488 C 216.706 350.603,219.101 350.564,216.400 350.394 C 211.452 350.083,199.759 349.906,200.033 350.146 M239.072 351.100 C 245.271 351.162,255.531 351.162,261.872 351.100 C 268.212 351.038,263.140 350.987,250.600 350.987 C 238.060 350.987,232.872 351.038,239.072 351.100 " stroke="none" fill="#aecd8e" fill-rule="evenodd"></path><path id="path4" d="M123.100 53.497 C 124.695 53.573,127.305 53.573,128.900 53.497 C 130.495 53.421,129.190 53.359,126.000 53.359 C 122.810 53.359,121.505 53.421,123.100 53.497 M162.927 54.300 C 167.507 54.364,174.887 54.364,179.327 54.299 C 183.767 54.235,180.020 54.183,171.000 54.183 C 161.980 54.183,158.347 54.235,162.927 54.300 M249.500 54.293 C 250.435 54.377,251.965 54.377,252.900 54.293 C 253.835 54.209,253.070 54.140,251.200 54.140 C 249.330 54.140,248.565 54.209,249.500 54.293 M107.700 63.076 C 108.085 63.176,108.715 63.176,109.100 63.076 C 109.485 62.975,109.170 62.893,108.400 62.893 C 107.630 62.893,107.315 62.975,107.700 63.076 M115.700 63.476 C 116.085 63.576,116.715 63.576,117.100 63.476 C 117.485 63.375,117.170 63.293,116.400 63.293 C 115.630 63.293,115.315 63.375,115.700 63.476 M199.318 73.498 C 201.033 73.573,203.733 73.572,205.318 73.497 C 206.903 73.421,205.500 73.359,202.200 73.360 C 198.900 73.361,197.603 73.422,199.318 73.498 M230.700 74.282 C 231.195 74.378,232.005 74.378,232.500 74.282 C 232.995 74.187,232.590 74.109,231.600 74.109 C 230.610 74.109,230.205 74.187,230.700 74.282 M277.293 76.800 C 277.293 77.570,277.375 77.885,277.476 77.500 C 277.576 77.115,277.576 76.485,277.476 76.100 C 277.375 75.715,277.293 76.030,277.293 76.800 M276.493 89.200 C 276.493 89.970,276.575 90.285,276.676 89.900 C 276.776 89.515,276.776 88.885,276.676 88.500 C 276.575 88.115,276.493 88.430,276.493 89.200 M136.940 95.600 C 136.940 97.470,137.009 98.235,137.093 97.300 C 137.177 96.365,137.177 94.835,137.093 93.900 C 137.009 92.965,136.940 93.730,136.940 95.600 M240.905 182.687 C 241.514 182.779,242.414 182.777,242.905 182.682 C 243.397 182.587,242.900 182.511,241.800 182.514 C 240.700 182.517,240.297 182.595,240.905 182.687 M182.078 183.498 C 184.431 183.569,188.391 183.569,190.878 183.499 C 193.365 183.429,191.440 183.371,186.600 183.370 C 181.760 183.370,179.725 183.428,182.078 183.498 M210.512 202.695 C 211.564 202.777,213.184 202.776,214.112 202.692 C 215.040 202.608,214.180 202.541,212.200 202.542 C 210.220 202.543,209.460 202.612,210.512 202.695 M232.100 203.476 C 232.485 203.576,233.115 203.576,233.500 203.476 C 233.885 203.375,233.570 203.293,232.800 203.293 C 232.030 203.293,231.715 203.375,232.100 203.476 M269.693 216.000 C 269.693 216.770,269.775 217.085,269.876 216.700 C 269.976 216.315,269.976 215.685,269.876 215.300 C 269.775 214.915,269.693 215.230,269.693 216.000 M259.301 221.800 C 259.305 222.680,259.387 222.993,259.483 222.495 C 259.579 221.998,259.575 221.278,259.475 220.895 C 259.375 220.513,259.296 220.920,259.301 221.800 M136.950 287.000 C 136.951 289.420,137.016 290.358,137.096 289.085 C 137.176 287.812,137.175 285.832,137.094 284.685 C 137.014 283.538,136.949 284.580,136.950 287.000 M177.309 304.000 C 177.309 304.990,177.387 305.395,177.482 304.900 C 177.578 304.405,177.578 303.595,177.482 303.100 C 177.387 302.605,177.309 303.010,177.309 304.000 M136.093 307.200 C 136.093 307.970,136.175 308.285,136.276 307.900 C 136.376 307.515,136.376 306.885,136.276 306.500 C 136.175 306.115,136.093 306.430,136.093 307.200 M271.781 321.300 L 270.200 323.000 271.900 321.419 C 273.481 319.948,273.784 319.600,273.481 319.600 C 273.416 319.600,272.651 320.365,271.781 321.300 M242.100 330.676 C 242.485 330.776,243.115 330.776,243.500 330.676 C 243.885 330.575,243.570 330.493,242.800 330.493 C 242.030 330.493,241.715 330.575,242.100 330.676 M143.305 349.087 C 143.914 349.179,144.814 349.177,145.305 349.082 C 145.797 348.987,145.300 348.911,144.200 348.914 C 143.100 348.917,142.697 348.995,143.305 349.087 M176.291 349.089 C 177.001 349.177,178.261 349.179,179.091 349.092 C 179.921 349.005,179.340 348.933,177.800 348.931 C 176.260 348.929,175.581 349.000,176.291 349.089 M127.907 349.890 C 128.626 349.979,129.706 349.977,130.307 349.886 C 130.908 349.795,130.320 349.722,129.000 349.724 C 127.680 349.726,127.188 349.801,127.907 349.890 M195.891 349.889 C 196.601 349.977,197.861 349.979,198.691 349.892 C 199.521 349.805,198.940 349.733,197.400 349.731 C 195.860 349.729,195.181 349.800,195.891 349.889 M214.512 350.295 C 215.564 350.377,217.184 350.376,218.112 350.292 C 219.040 350.208,218.180 350.141,216.200 350.142 C 214.220 350.143,213.460 350.212,214.512 350.295 M222.713 350.695 C 223.876 350.776,225.676 350.776,226.713 350.693 C 227.751 350.611,226.800 350.545,224.600 350.546 C 222.400 350.547,221.551 350.614,222.713 350.695 " stroke="none" fill="#c4dca4" fill-rule="evenodd"></path></g></svg>