<svg width="67" height="44" viewBox="0 0 67 44" fill="none" xmlns="http://www.w3.org/2000/svg">
<path d="M34.2525 15.8653C30.2066 15.8653 26.6858 18.1412 24.9127 21.4824C23.139 18.1412 19.62 15.8653 15.5713 15.8653C13.194 15.8653 10.9977 16.6518 9.2255 17.9799V9.07235C9.20454 7.92135 8.26587 7 7.11093 7C5.95598 7 5.02643 7.92135 5 9.07235V26.6129H5.00213C5.09539 32.3721 9.78869 37.0117 15.5713 37.0117C19.62 37.0117 23.139 34.7337 24.9127 31.3958C26.6858 34.7337 30.2066 37.0117 34.2525 37.0117C40.0898 37.0117 44.8251 32.2783 44.8251 26.4364C44.8251 20.5975 40.0898 15.8653 34.2525 15.8653ZM15.5713 32.7786C12.0685 32.7786 9.2255 29.941 9.2255 26.4379C9.2255 22.936 12.0685 20.0981 15.5713 20.0981C19.0738 20.0981 21.9108 22.936 21.9108 26.4364C21.9108 29.9401 19.0738 32.7786 15.5713 32.7786ZM34.2525 32.7786C30.7488 32.7786 27.9079 29.9401 27.9079 26.4364C27.9079 22.936 30.7488 20.0981 34.2525 20.0981C37.7547 20.0981 40.5941 22.936 40.5941 26.4364C40.5941 29.9401 37.7547 32.7786 34.2525 32.7786Z" fill="#D1D7DC"/>
<path d="M61.2307 33.4718L55.4839 26.4227L61.2377 19.36C61.9652 18.4283 61.7565 17.1272 60.7522 16.4361C59.7468 15.739 58.336 15.9176 57.5581 16.8216V16.8204L52.6078 22.8874L47.662 16.8204V16.8216C46.8919 15.9176 45.4724 15.739 44.47 16.4361C43.4675 17.1278 43.2579 18.4283 43.9891 19.36H43.987L49.7307 26.4227L43.987 33.4718H43.9891C43.2579 34.4065 43.4675 35.7033 44.47 36.3974C45.4724 37.0916 46.8919 36.9148 47.662 36.0095L52.6078 29.951L57.5511 36.0095C58.3299 36.9148 59.7401 37.0916 60.7456 36.3974C61.7501 35.7033 61.9597 34.4065 61.2307 33.4718Z" fill="#D1D7DC"/>
</svg>
