<svg viewBox="0 0 213 80" fill="none" xmlns="http://www.w3.org/2000/svg"><path d="M33.059 19.088L16.528 9.544 0 19.088V9.544L16.53 0l16.531 9.544v9.544h-.002z" fill="#A435F0"/><path d="M0 27.101h8.659V48.14c0 5.437 4.058 8.085 7.872 8.085 3.842 0 7.872-2.72 7.872-8.157V27.1h8.658V48.64c0 5.008-1.573 8.872-4.722 11.52-3.15 2.648-7.086 3.936-11.88 3.936-4.795 0-8.731-1.288-11.808-3.936C1.573 57.512 0 53.792 0 48.853V27.101zM107.92 53.248c-2.621 2.333-5.608 3.477-9.013 3.477-6.208 0-10.376-3.538-10.846-9.018h27.979s.184-1.771.184-3.432c0-5.152-1.645-9.446-5.008-12.952-3.291-3.507-7.584-5.224-12.808-5.224-5.51 0-10.019 1.717-13.597 5.224-3.507 3.506-5.296 8.085-5.296 13.81v.286c0 5.653 1.789 10.16 5.296 13.525 3.506 3.363 8.157 5.08 13.81 5.08 6.574 0 11.806-2.592 15.731-7.064l-6.432-3.712zm-16.456-17.56c1.93-1.504 4.293-2.29 6.941-2.29 2.504 0 4.579.786 6.368 2.362 1.71 1.435 2.632 3.197 2.712 5.224H88.28c.277-2.093 1.336-3.859 3.184-5.296zM195.085 68.885C191.568 77.18 187.893 80 182.259 80h-3.904v-7.675h3.157c1.939 0 3.741-.728 5.459-4.693l1.717-3.965L173.875 27.1h8.802l10.52 26.334L204.003 27.1h8.802c-.002 0-14.101 33.248-17.72 41.784zM66.77 13.29v17.078c-2.837-2.544-7.25-4.056-11.52-4.056-5.08 0-9.373 1.79-12.88 5.437-3.434 3.579-5.151 8.014-5.151 13.382s1.717 9.802 5.152 13.453c3.506 3.579 7.8 5.368 12.88 5.368 5.861 0 9.562-2.301 11.52-4.107v3.32h8.586V13.291h-8.586zm-2.575 39.715c-2.075 2.075-4.723 3.15-7.8 3.15-3.078 0-5.582-1.075-7.656-3.15-2.003-2.074-3.006-4.722-3.006-7.872 0-3.149 1.003-5.797 3.006-7.872 2.074-2.074 4.578-3.149 7.656-3.149 3.077 0 5.725 1.075 7.8 3.15 2.146 2.074 3.221 4.722 3.221 7.871 0 3.15-1.075 5.798-3.221 7.872zM160.525 26.387c-6.522 0-9.914 2.706-12.237 5.312-.928-1.771-3.544-5.312-9.659-5.312-5.165 0-8.213 2.61-9.73 4.472v-3.755h-8.515v36.064h8.515V42.416c0-4.867 3.005-8.373 7.013-8.373 4.08 0 6.44 3.077 6.44 8.013v21.11h8.515V42.412c0-4.938 2.933-8.373 7.154-8.373 4.08 0 6.44 3.077 6.44 8.013v21.11h8.587V40.837c0-9.402-5.053-14.45-12.523-14.45z" fill="#fff"/></svg>
