<svg width="115" height="44" viewBox="0 0 115 44" fill="none" xmlns="http://www.w3.org/2000/svg">
<path d="M5 13V28.0195H11.9824V19.0077H15.9723V28.0195H22.9544V13H5Z" fill="#D1D7DC"/>
<path d="M29.342 13V28.2065H32.6308V18.6024L39.9196 28.2065H42.7344V13H39.4752V22.3966L32.3938 13H29.342ZM70.7932 13L64.4822 28.2065H67.8599L69.2525 24.8272H75.2376L76.6302 28.2065H80.0671L73.7858 13H70.7932ZM57.6971 13.7114V16.646H56.3342V19.462H57.6971V24.9162C57.6971 27.5887 59.0731 28.3843 61.0748 28.3843C62.1735 28.3843 62.964 28.1424 63.6526 27.7322V25.094C63.1773 25.3561 62.6262 25.509 62.023 25.509C61.2917 25.509 60.986 25.1367 60.986 24.3826V19.462H63.6822V16.646H60.986V13.7114H57.6971ZM50.0528 16.4385C46.6917 16.4385 44.3344 19.1597 44.3344 22.4559V22.4855C44.3344 26.02 46.9097 28.4732 50.3787 28.4732C52.467 28.4732 54.0148 27.6456 55.0898 26.3094L53.2231 24.6494C52.3177 25.4912 51.507 25.8351 50.4083 25.8351C48.9423 25.8351 47.9195 25.0691 47.5936 23.5823H55.6231C55.648 23.2811 55.6527 22.9515 55.6527 22.693C55.6527 19.4181 53.907 16.4385 50.0528 16.4385ZM87.7707 16.4385C86.0688 16.4385 84.9524 17.2293 84.156 18.306V16.646H80.8968V31.645H84.156V26.6947C84.9311 27.6219 86.0273 28.4139 87.7707 28.4139C90.5073 28.4139 93.0151 26.3141 93.0151 22.4559V22.3966C93.0151 18.5395 90.4646 16.4385 87.7707 16.4385ZM101.222 16.4385C99.5217 16.4385 98.4337 17.2293 97.6372 18.306V16.646H94.3484V31.645H97.6372V26.6947C98.4112 27.6219 99.4766 28.4139 101.222 28.4139C103.958 28.4139 106.467 26.3141 106.467 22.4559V22.3966C106.467 18.5395 103.915 16.4385 101.222 16.4385ZM106.141 16.646V17.0017H106.852V19.2249H107.237V17.0017H107.978V16.646H106.141ZM108.452 16.646V19.2249H108.837V17.0906L109.607 19.2249H109.844L110.615 17.0906V19.2249H111V16.646H110.407L109.726 18.6024L109.044 16.646H108.452ZM72.245 17.0017L74.2302 21.8927H70.2303L72.245 17.0017ZM50.0528 19.0767C51.43 19.0767 52.2892 20.0394 52.4824 21.5073H47.5343C47.7927 20.0228 48.6934 19.0767 50.0528 19.0767ZM86.9115 19.2249C88.4392 19.2249 89.7263 20.4793 89.7262 22.3966V22.4559C89.7262 24.3957 88.4392 25.6276 86.9115 25.6276C85.3838 25.6276 84.1263 24.3743 84.1263 22.4559V22.3966C84.1263 20.4793 85.3838 19.2249 86.9115 19.2249ZM100.393 19.2249C101.923 19.2249 103.208 20.4793 103.208 22.3966V22.4559C103.208 24.3957 101.923 25.6276 100.393 25.6276C98.8663 25.6276 97.578 24.3743 97.578 22.4559V22.3966C97.578 20.4793 98.8663 19.2249 100.393 19.2249Z" fill="#D1D7DC"/>
</svg>
