<svg width="44" height="44" viewBox="0 0 44 44" fill="none" xmlns="http://www.w3.org/2000/svg">
<path fill-rule="evenodd" clip-rule="evenodd" d="M21.9213 4C25.4658 4 28.9307 5.05106 31.8777 7.02028C34.8249 8.98949 37.1219 11.7884 38.4783 15.0631C39.8347 18.3378 40.1897 21.9412 39.4981 25.4175C38.8066 28.8939 37.0999 32.0872 34.5935 34.5935C32.0872 37.0999 28.8939 38.8066 25.4175 39.4981C21.9412 40.1897 18.3378 39.8347 15.0631 38.4783C11.7884 37.1219 8.98949 34.8249 7.02028 31.8777C5.05106 28.9307 4 25.4658 4 21.9213C4.02072 17.1747 5.9155 12.6283 9.27191 9.27191C12.6283 5.9155 17.1747 4.02072 21.9213 4V4ZM21.9213 6.25C18.8313 6.25667 15.8126 7.17862 13.2463 8.89945C10.6799 10.6203 8.6808 13.0629 7.50142 15.9188C6.32203 18.7748 6.0152 21.9162 6.61965 24.9465C7.2241 27.9767 8.71275 30.7599 10.8977 32.9449C13.0826 35.1298 15.8658 36.6184 18.896 37.2228C21.9263 37.8273 25.0676 37.5205 27.9237 36.3411C30.7796 35.1617 33.2222 33.1627 34.943 30.5962C36.6639 28.0299 37.5859 25.0112 37.5925 21.9213C37.5836 17.7698 35.929 13.7913 32.9913 10.8578C30.0537 7.9244 26.0727 6.27547 21.9213 6.2725V6.25ZM11.4588 13.5062C12.507 12.2012 13.7888 11.1026 15.2387 10.2663L19.1875 21.145H24.745L28.6713 10.3113C30.0231 11.1059 31.226 12.1299 32.2263 13.3375L26.6013 28.0525L24.5087 22.7425H19.12L17.0612 28.0525L11.4588 13.5062ZM34.4875 17.1625C35.6317 20.2416 35.6142 23.6324 34.4379 26.6995C33.2616 29.7665 31.0073 32.2995 28.0975 33.8238L34.4875 17.1625ZM25.3075 34.915C23.0134 35.5033 20.6056 35.4839 18.3212 34.8588V34.5775L21.7863 25.5775L25.24 34.5775L25.3075 34.915ZM15.475 33.6775C13.3629 32.5249 11.5998 30.8253 10.3707 28.7569C9.14147 26.6884 8.49145 24.3274 8.48875 21.9213C8.47693 20.3879 8.7359 18.8645 9.25375 17.4213L15.475 33.6775ZM21.9213 8.48875C23.0791 8.48625 24.2324 8.63373 25.3525 8.9275L21.9775 18.31L18.6025 8.91625C19.6862 8.6341 20.8014 8.49046 21.9213 8.48875V8.48875Z" fill="#D1D7DC"/>
</svg>
